<svg width="48" height="40" viewBox="0 0 48 40" fill="none" xmlns="http://www.w3.org/2000/svg">
<path d="M0 20.0305V19.2061H8.04391C8.06188 19.3538 8.07984 19.5095 8.10379 19.7191H16.3094C16.1417 19.9027 16.0878 20.0125 16.006 20.0385C15.8882 20.0764 15.7505 20.0564 15.6208 20.0564C10.6008 20.0564 5.57884 20.0564 0.558882 20.0564C0.379241 20.0564 0.197605 20.0405 0.00199601 20.0325L0 20.0305Z" fill="#625AFA"/>
<path d="M0.118115 22.4812C0.0961583 22.2177 0.0781943 21.9842 0.0522461 21.6907C2.71892 21.4093 5.34566 21.1319 8.01233 20.8504C8.07421 21.0121 8.13808 21.1778 8.21393 21.3754C10.8567 21.1019 13.5074 20.8285 16.2698 20.543C15.9625 20.9363 1.56523 22.571 0.118115 22.4812Z" fill="#625AFA"/>
<path d="M8.174 17.5129C8.18797 17.6945 8.19795 17.8522 8.21392 18.0458C10.8806 18.3971 13.5592 18.5608 16.2079 18.946C16.196 19.0398 16.186 19.1336 16.174 19.2294C10.8606 18.6726 5.54725 18.1177 0.166016 17.5548C0.197952 17.2634 0.225896 17.0039 0.257832 16.6865C2.9245 16.966 5.53328 17.2394 8.174 17.5149V17.5129Z" fill="#625AFA"/>
<path d="M0.59725 25.0241C0.525393 24.7008 0.473497 24.4692 0.411621 24.1858C3.04036 23.6269 5.63917 23.072 8.27589 22.5112C8.34176 22.6649 8.40563 22.8086 8.4735 22.9643C8.51941 22.9682 8.5733 22.9842 8.6232 22.9742C11.0104 22.4752 13.3977 21.9722 15.7869 21.4792C15.9426 21.4473 16.1102 21.4752 16.2719 21.4752C16.2759 21.5471 16.2819 21.617 16.2859 21.6888C11.0803 22.7966 5.8747 23.9044 0.599246 25.0261L0.59725 25.0241Z" fill="#625AFA"/>
<path d="M0.587402 15.089C0.685206 14.7756 0.759059 14.5361 0.842891 14.2646C3.39379 14.8055 5.90277 15.3385 8.44369 15.8774V16.4043C11.0545 17.0431 13.7231 17.4723 16.3299 18.145C16.31 18.2348 16.288 18.3246 16.2681 18.4144C11.0645 17.3105 5.86086 16.2067 0.587402 15.089Z" fill="#625AFA"/>
<path d="M1.36778 27.4025C1.27197 27.127 1.19013 26.8915 1.09033 26.6061C2.16219 26.2588 3.19612 25.9254 4.22806 25.5881C5.56339 25.153 6.89872 24.7159 8.23206 24.2787C8.55941 24.171 8.90671 23.9853 8.9606 24.5961C11.4676 23.7877 13.9087 23.0013 16.3498 22.2129C16.3798 22.3047 16.4077 22.3965 16.4376 22.4883C11.4396 24.151 6.41768 25.7498 1.36578 27.4025H1.36778Z" fill="#625AFA"/>
<path d="M2.04248 28.9168C4.5335 27.807 6.97661 26.7192 9.4317 25.6254C9.54348 25.7771 9.63729 25.9048 9.74508 26.0505C12.0185 25.0405 14.268 24.0405 16.5754 23.0166C16.4776 23.4377 4.40576 28.9826 2.41574 29.6074C2.30795 29.4058 2.19617 29.2002 2.04248 28.9168Z" fill="#625AFA"/>
<path d="M1.36084 12.7101C1.49058 12.4167 1.58638 12.1991 1.70415 11.9336C3.08738 12.3807 4.45465 12.8198 5.82191 13.265C6.70016 13.5504 7.57241 13.8658 8.46063 14.1153C8.83788 14.221 8.95564 14.3827 8.79596 14.7739C11.3629 15.6701 13.9617 16.3987 16.4886 17.3288C16.4587 17.4147 16.4307 17.5005 16.4008 17.5863C11.4088 15.9675 6.41872 14.3488 1.36283 12.7101H1.36084Z" fill="#625AFA"/>
<path d="M3.75173 31.7343C3.60004 31.5167 3.46431 31.3211 3.28467 31.0656C5.62 29.7144 7.93936 28.375 10.2807 27.0217C10.4104 27.1455 10.5262 27.2573 10.6639 27.387C12.6998 26.2154 14.7338 25.0457 16.7657 23.876C16.8116 23.9579 16.8595 24.0377 16.9054 24.1195C12.5621 26.6764 8.17888 29.1655 3.75173 31.7343Z" fill="#625AFA"/>
<path d="M16.5777 16.7572C11.8851 14.6674 7.19248 12.5796 2.43799 10.4638C2.57771 10.2163 2.69747 10.0007 2.84518 9.73926C5.05276 10.7213 7.22841 11.6894 9.42402 12.6654C9.39807 12.8451 9.37412 13.0028 9.34817 13.1824C11.7813 14.3421 14.2943 15.3261 16.7055 16.5217C16.6635 16.6016 16.6216 16.6794 16.5777 16.7592V16.7572Z" fill="#625AFA"/>
<path d="M11.3238 28.2651C11.4615 28.3709 11.5773 28.4607 11.731 28.5804C13.5074 27.295 15.2938 26.0036 17.1581 24.6543C17.0723 25.1134 9.81079 30.5285 5.29782 33.6144C5.13813 33.4327 4.97247 33.2451 4.77686 33.0236C6.96847 31.4307 9.12217 29.8659 11.3258 28.2651H11.3238Z" fill="#625AFA"/>
<path d="M17.503 25.4961C17.5489 25.6478 17.6068 25.7556 17.5868 25.7756C14.0918 28.9492 10.5888 32.1149 7.06386 35.3045C6.85428 35.1249 6.67664 34.9752 6.45508 34.7855C7.2435 34.073 7.996 33.3923 8.74849 32.7137C9.87624 31.6957 11.012 30.6857 12.1317 29.6578C12.3952 29.4143 12.6227 29.2566 12.9201 29.6159C14.4431 28.2466 15.9441 26.8973 17.503 25.4941V25.4961Z" fill="#625AFA"/>
<path d="M10.1156 11.1041C10.0757 11.2877 10.0398 11.4454 9.99981 11.623C12.3452 12.9803 14.6865 14.3376 17.0278 15.6929C16.9779 15.7767 16.928 15.8625 16.8781 15.9464C12.5228 13.4354 8.16947 10.9224 3.7583 8.37752C3.92596 8.14798 4.06169 7.96035 4.23933 7.71484C6.20341 8.84658 8.15151 9.97034 10.1156 11.1021V11.1041Z" fill="#625AFA"/>
<path d="M13.7747 30.2333C13.9444 30.3032 14.0761 30.3592 14.2458 30.431C15.4653 29.0796 16.6889 27.7263 17.9104 26.373C17.9623 26.401 18.0122 26.4289 18.0641 26.4569C17.9903 26.5946 17.9384 26.7523 17.8386 26.8641C16.0482 28.8641 14.2537 30.8601 12.4573 32.8561C11.3076 34.1355 10.1539 35.4111 8.9683 36.7264C8.75872 36.5867 8.5711 36.459 8.37549 36.3272C8.42339 36.2334 8.43936 36.1795 8.47329 36.1416C10.2278 34.1835 11.9823 32.2294 13.7747 30.2313V30.2333Z" fill="#625AFA"/>
<path d="M18.5224 27.1348C18.5903 27.54 12.5404 36.1009 10.9815 37.8913C10.8019 37.7995 10.6103 37.7017 10.3887 37.5899C10.4426 37.4742 10.4705 37.3684 10.5304 37.2865C11.9855 35.2766 13.4406 33.2666 14.9136 31.2686C15.0114 31.1348 15.255 31.1109 15.4266 31.0251C15.5723 30.9512 15.752 30.8933 15.8418 30.7716C16.6043 29.7456 17.3468 28.7077 18.0993 27.6738C18.223 27.5021 18.3608 27.3404 18.5224 27.1348Z" fill="#625AFA"/>
<path d="M17.2024 15.1191C13.2503 12.2508 9.29814 9.38061 5.26221 6.45047C5.50373 6.26085 5.68736 6.11714 5.91491 5.9375C7.5656 7.1351 9.25423 8.36065 10.9728 9.60815C10.9109 9.76384 10.8511 9.90955 10.7832 10.0772C12.9688 11.7039 15.1984 13.2608 17.372 14.8916C17.3161 14.9674 17.2582 15.0433 17.2024 15.1171V15.1191Z" fill="#625AFA"/>
<path d="M19.2503 27.9841C19.2263 28.1159 19.2343 28.2656 19.1724 28.3753C17.2243 31.7626 15.2663 35.1458 13.3201 38.535C13.0427 39.0181 12.7992 38.5949 12.4199 38.6268C12.8591 37.8544 13.2363 37.1837 13.6195 36.5171C14.5078 34.9761 15.4 33.4392 16.2902 31.9003C16.4259 31.6648 16.5018 31.3773 16.899 31.4931C16.9728 31.5151 17.1465 31.3195 17.2223 31.1937C17.7692 30.2696 18.3042 29.3374 18.8431 28.4093C18.9329 28.2536 19.0287 28.1019 19.1225 27.9482C19.1665 27.9602 19.2084 27.9741 19.2523 27.9861L19.2503 27.9841Z" fill="#625AFA"/>
<path d="M11.9628 8.16891C11.8769 8.31861 11.7991 8.45235 11.7153 8.60005C13.7592 10.4463 15.7791 12.2727 17.8011 14.099C17.7372 14.1689 17.6733 14.2368 17.6115 14.3066C14.1065 11.1529 10.6035 8.00125 7.05859 4.81163C7.27815 4.62799 7.4558 4.48229 7.66538 4.30664C9.1045 5.60005 10.5196 6.87151 11.9648 8.16891H11.9628Z" fill="#625AFA"/>
<path d="M14.6465 39.2444C15.7084 36.8552 16.7563 34.4899 17.8222 32.1327C17.89 31.983 18.1275 31.9131 18.2733 31.7913C18.399 31.6856 18.5507 31.5778 18.6166 31.4361C18.9838 30.6496 19.3271 29.8512 19.6804 29.0568C19.7303 28.943 19.7982 28.8392 19.8581 28.7295C19.91 28.7434 19.9619 28.7574 20.0158 28.7694C19.9599 28.965 19.9279 29.1706 19.8461 29.3542C18.6764 31.9909 17.5008 34.6237 16.3271 37.2564C16.0796 37.8133 15.7962 38.3582 15.5926 38.9331C15.409 39.454 15.1375 39.5478 14.6465 39.2424V39.2444Z" fill="#625AFA"/>
<path d="M16.8354 39.749C17.6698 37.1822 18.4862 34.6732 19.3046 32.1642C19.3266 32.0963 19.3604 31.9806 19.3963 31.9766C20.1549 31.9067 20.0132 31.2181 20.2068 30.777C20.3984 30.3398 20.5182 29.8728 20.8036 29.4297C20.8036 29.5614 20.8375 29.7051 20.7996 29.8249C19.7557 33.0604 18.6998 36.2919 17.6639 39.5315C17.5002 40.0424 17.2048 39.8009 16.8375 39.749H16.8354Z" fill="#625AFA"/>
<path d="M18.0861 13.5003C15.0602 10.1411 12.0362 6.77978 9.01025 3.4205C9.3988 3.08117 9.74943 3.08783 10.0622 3.44046C10.9644 4.44644 11.8586 5.45842 12.7827 6.44445C13.0322 6.70992 13.1061 6.91351 12.7907 7.17698C14.641 9.24085 16.4733 11.2828 18.3057 13.3247C18.2338 13.3826 18.16 13.4425 18.0881 13.5003H18.0861Z" fill="#625AFA"/>
<path d="M19.0459 39.9575C19.4192 38.193 19.7785 36.4943 20.1397 34.7957C20.2974 34.0552 20.4611 33.3166 20.6188 32.5761C20.6886 32.2488 20.6308 31.8476 21.1477 31.8077C21.2116 31.8037 21.2735 31.5621 21.3054 31.4244C21.4092 30.9853 21.497 30.5402 21.7006 30.123C21.1876 33.4284 20.4252 36.6819 19.7565 39.9734C19.6088 39.9833 19.501 39.9973 19.3952 39.9973C19.3054 39.9973 19.2176 39.9794 19.0479 39.9594L19.0459 39.9575Z" fill="#625AFA"/>
<path d="M21.2139 39.9194C21.4534 37.628 21.6909 35.3666 21.9285 33.1051C21.9624 32.7737 21.9704 32.4364 22.0442 32.1131C22.0822 31.9474 22.2418 31.8097 22.3416 31.656C22.4135 31.5462 22.5033 31.4364 22.5352 31.3127C22.5911 31.1051 22.6071 30.8875 22.7648 30.6699C22.7907 30.7737 22.8466 30.8835 22.8366 30.9833C22.5452 33.8196 22.2438 36.654 21.9584 39.4903C21.9105 39.9654 21.657 40.0173 21.2139 39.9194Z" fill="#625AFA"/>
<path d="M11.0137 2.1975C11.2752 2.07375 11.4708 1.97993 11.7063 1.86816C12.5506 3.02983 13.3869 4.15957 14.1893 5.31128C14.2732 5.43104 14.1674 5.68453 14.1394 6.00988C15.6604 8.10968 17.2712 10.3353 18.882 12.5608C18.8081 12.6127 18.7343 12.6666 18.6604 12.7185C16.1275 9.23344 13.5945 5.7504 11.0137 2.20149V2.1975Z" fill="#625AFA"/>
<path d="M28.2007 28.5378C28.3304 28.4041 28.4522 28.2763 28.6278 28.0947C30.7117 31.7055 32.7536 35.2424 34.7935 38.7773C34.7556 38.8093 34.7197 38.8412 34.6817 38.8731C34.5839 38.7554 34.4662 38.6476 34.3903 38.5159C33.8753 37.6376 33.3763 36.7514 32.8574 35.8751C32.7656 35.7175 32.7276 35.3921 32.3883 35.6057C32.3644 35.6197 32.1987 35.462 32.1388 35.3602C30.8314 33.1027 29.528 30.8412 28.2007 28.5378Z" fill="#625AFA"/>
<path d="M27.9337 28.9141C29.5006 32.439 31.0575 35.938 32.6124 39.435C32.5645 39.459 32.5186 39.4849 32.4707 39.5089C32.4048 39.417 32.321 39.3332 32.2751 39.2314C31.9617 38.5408 31.6663 37.8422 31.3389 37.1596C31.2451 36.964 31.291 36.5288 30.826 36.7264C30.802 36.7364 30.6723 36.5468 30.6244 36.435C29.6124 34.1735 28.6144 31.9081 27.5884 29.6526C27.4128 29.2673 27.5026 29.0757 27.9357 28.9121L27.9337 28.9141Z" fill="#625AFA"/>
<path d="M29.5162 27.0382C29.6439 26.8705 29.7337 26.7528 29.8635 26.5811C32.9074 29.9623 35.9333 33.3236 38.9593 36.6849C38.9214 36.7268 38.8854 36.7707 38.8475 36.8126C38.7297 36.7069 38.604 36.6091 38.4982 36.4933C37.5301 35.4214 36.5681 34.3416 35.594 33.2757C35.4603 33.13 35.3665 32.7847 35.0371 33.0522C35.0152 33.0701 34.8794 32.9863 34.8236 32.9244C33.0611 30.9743 31.3026 29.0222 29.5142 27.0382H29.5162Z" fill="#625AFA"/>
<path d="M36.7914 37.9872C36.6856 37.8615 36.5718 37.7397 36.476 37.608C35.7554 36.622 35.0409 35.6299 34.3163 34.6459C34.1906 34.4763 34.1167 34.1649 33.7734 34.3725C33.7434 34.3904 33.5818 34.2387 33.5139 34.1429C32.0528 32.1389 30.6017 30.129 29.1307 28.1309C28.9051 27.8256 28.979 27.6339 29.3203 27.3984C31.8512 30.8834 34.3902 34.3785 36.9291 37.8755C36.8832 37.9134 36.8353 37.9513 36.7894 37.9892L36.7914 37.9872Z" fill="#625AFA"/>
<path d="M30.2661 39.8661C29.7292 39.2214 29.9567 38.1396 28.9966 37.4849C28.2242 35.1096 27.3859 32.5248 26.5396 29.922C26.7072 29.8062 26.8548 29.7044 27.0744 29.5527C28.1943 33.0058 29.298 36.409 30.4018 39.8122C30.3559 39.8302 30.312 39.8481 30.2661 39.8661Z" fill="#625AFA"/>
<path d="M28.0034 40C27.9235 39.6607 27.8557 39.3194 27.7619 38.984C27.706 38.7864 27.7798 38.4531 27.3707 38.5369C27.3367 38.5429 27.2329 38.3473 27.209 38.2335C26.682 35.7764 26.1511 33.3174 25.6541 30.8543C25.6142 30.6547 25.8158 30.4072 25.9036 30.1816C25.9834 30.1956 26.0653 30.2096 26.1451 30.2236C26.8337 33.4651 27.5223 36.7066 28.211 39.9481C28.1411 39.9661 28.0712 39.982 28.0014 40H28.0034Z" fill="#625AFA"/>
<path d="M40.7428 35.4134C39.661 34.4393 38.5772 33.4673 37.4953 32.4932C37.2618 32.2837 37.0382 32.0581 36.7927 31.8645C36.6031 31.7148 36.4694 31.3755 36.1161 31.627C36.0782 31.6529 35.9025 31.5132 35.8087 31.4294C33.9764 29.7847 32.152 28.132 30.3117 26.4952C30.0362 26.2497 30.1001 26.0721 30.3756 25.8066C33.8766 28.9603 37.3796 32.114 40.8826 35.2697C40.8366 35.3176 40.7907 35.3655 40.7448 35.4154L40.7428 35.4134Z" fill="#625AFA"/>
<path d="M44.0821 31.8709C43.1899 31.3619 42.2976 30.8569 41.4073 30.344C40.5251 29.837 39.6528 29.312 38.7626 28.819C38.4952 28.6713 38.2477 28.31 37.8584 28.6194C37.8245 28.6454 37.6928 28.5635 37.6149 28.5176C35.3874 27.2342 33.1618 25.9468 30.9023 24.6434C30.9622 24.4837 31.0161 24.34 31.088 24.1523C35.4812 26.6913 39.8305 29.2022 44.1798 31.7152C44.1478 31.7671 44.1159 31.819 44.0841 31.8709H44.0821Z" fill="#625AFA"/>
<path d="M42.5024 33.7524C41.5024 33.0279 40.5044 32.3053 39.5044 31.5808C38.9495 31.1796 38.4066 30.7624 37.8397 30.3792C37.6182 30.2295 37.4325 29.8622 37.0573 30.1576C37.0194 30.1875 36.8397 30.0558 36.7359 29.982C34.7719 28.5588 32.8138 27.1297 30.8457 25.7125C30.5723 25.5149 30.4286 25.3412 30.7958 25.0059C34.722 27.8582 38.6721 30.7285 42.6202 33.5967C42.5803 33.6486 42.5403 33.7005 42.5004 33.7524H42.5024Z" fill="#625AFA"/>
<path d="M25.1164 30.7989C25.4318 33.8168 25.7471 36.8288 26.0685 39.8967C25.5815 39.7769 26.0805 38.9446 25.3439 39.228C25.0705 36.6013 24.815 34.0444 24.5316 31.4895C24.4817 31.0324 24.6453 30.8468 25.1164 30.7969V30.7989Z" fill="#625AFA"/>
<path d="M23.3589 31.4435C23.5126 31.3696 23.6922 31.2838 23.9317 31.168V39.6051C23.7581 39.6391 23.5804 39.675 23.3589 39.7189V31.4435Z" fill="#625AFA"/>
<path d="M31.4201 23.3652C36.1007 25.4511 40.7873 27.5369 45.474 29.6247C45.458 29.6746 45.44 29.7245 45.4241 29.7744C45.2444 29.7066 45.0608 29.6467 44.8851 29.5688C42.977 28.7205 41.0708 27.8642 39.1566 27.0299C39.0029 26.962 38.7893 27.0419 38.6057 27.0299C38.466 27.0199 38.3203 26.992 38.1925 26.9361C35.981 25.9521 33.7734 24.958 31.5578 23.984C31.2065 23.8303 31.1207 23.6846 31.4201 23.3672V23.3652Z" fill="#625AFA"/>
<path d="M31.4681 23.0024C31.4502 22.4555 31.7236 22.5692 32.0051 22.6611C35.7655 23.8846 39.526 25.1042 43.2865 26.3257C44.3703 26.679 45.4542 27.0363 46.5101 27.5173C46.3883 27.4934 46.2625 27.4814 46.1448 27.4435C44.0869 26.7788 42.043 26.0702 39.9671 25.4655C39.1647 25.2319 38.3005 25.2639 37.4821 24.9744C35.4981 24.2718 33.4841 23.6571 31.4701 23.0044L31.4681 23.0024Z" fill="#625AFA"/>
<path d="M47.9226 20.1915C47.733 20.1995 47.5454 20.2175 47.3558 20.2175C45.0025 20.2175 42.6192 19.978 40.3039 20.2813C37.6691 20.6247 35.0564 20.3392 32.4396 20.4969C32.24 20.5089 32.0384 20.4969 31.8468 20.4969C31.6612 19.962 32.0244 20.0538 32.2759 20.0538C35.1302 20.0498 37.9825 20.0538 40.8368 20.0538C43.0224 20.0538 45.2101 20.0538 47.3957 20.0538C47.5674 20.0538 47.741 20.0538 47.9127 20.0538C47.9147 20.0997 47.9186 20.1476 47.9206 20.1935L47.9226 20.1915Z" fill="#625AFA"/>
<path d="M31.6986 18.0645C31.4072 17.6034 31.7006 17.5515 31.986 17.4597C36.6487 15.9507 41.3093 14.4357 45.97 12.9227C46.1676 12.8589 46.3692 12.807 46.5708 12.7471C46.5848 12.791 46.5988 12.8349 46.6127 12.8768C46.1377 13.0405 45.6666 13.2122 45.1896 13.3679C43.2734 13.9926 41.2914 14.4696 39.463 15.292C38.4551 15.7451 37.4471 16.1762 36.4052 16.5275C34.8483 17.0545 33.2814 17.5475 31.7006 18.0625L31.6986 18.0645Z" fill="#625AFA"/>
<path d="M31.4793 17.266C31.4314 17.0843 31.3955 16.9486 31.3516 16.7789C36.0861 14.6712 40.8007 12.5734 45.5132 10.4756C45.5372 10.5275 45.5631 10.5793 45.5871 10.6312C45.4334 10.7031 45.2817 10.7789 45.126 10.8488C42.9803 11.8069 40.7049 12.5514 38.7308 13.7829C36.9943 14.8668 35.0981 15.5155 33.3196 16.4516C32.7488 16.751 32.138 16.9766 31.4793 17.266Z" fill="#625AFA"/>
<path d="M31.2925 16.4319C31.0709 16.1345 31.059 15.9589 31.3803 15.7732C35.5879 13.3581 39.7875 10.9289 43.9891 8.50579C44.059 8.46587 44.1428 8.44591 44.2206 8.41797C44.2426 8.45789 44.2665 8.49781 44.2885 8.53773C44.1488 8.62355 44.013 8.71537 43.8693 8.79721C41.8653 9.95489 39.8594 11.1086 37.8614 12.2782C37.6498 12.402 37.2246 12.4159 37.3943 12.873C37.4043 12.897 37.2626 12.9888 37.1847 13.0347C35.2306 14.1645 33.2745 15.2902 31.2905 16.4339L31.2925 16.4319Z" fill="#625AFA"/>
<path d="M47.3024 25.1861C46.3143 24.9785 45.3243 24.7729 44.3363 24.5634C42.8712 24.252 41.4062 23.6891 39.9431 23.6951C38.5818 23.6991 37.3563 23.2959 36.0708 23.0923C34.7575 22.8847 33.462 22.5594 32.1626 22.2779C31.9012 22.222 31.506 22.254 31.7375 21.7051C36.9251 22.8069 42.1187 23.9107 47.3123 25.0145C47.3083 25.0723 47.3064 25.1282 47.3024 25.1861Z" fill="#625AFA"/>
<path d="M42.7556 6.65003C42.4203 6.89754 42.085 7.14704 41.7496 7.39255C40.045 8.63606 38.3365 9.87359 36.6379 11.1251C36.4762 11.2448 36.075 11.2888 36.3504 11.668C36.3604 11.682 36.2726 11.7838 36.2167 11.8257C34.4842 13.0872 32.7496 14.3446 31.0051 15.6101C30.7676 15.3387 30.7077 15.163 31.0351 14.9275C34.8434 12.175 38.6438 9.40852 42.4462 6.64804C42.5141 6.59814 42.5959 6.5682 42.6698 6.53027C42.6997 6.57019 42.7277 6.61011 42.7576 6.65003H42.7556Z" fill="#625AFA"/>
<path d="M47.3234 15.2422C47.05 15.3161 46.7765 15.4019 46.4991 15.4598C44.3314 15.9189 42.1478 16.3201 40.0001 16.863C39.3514 17.0266 38.7506 17.4239 38.054 17.5616C36.0959 17.9468 34.1498 18.3839 32.1977 18.8011C31.9262 18.859 31.6548 18.9109 31.7286 18.4079C36.9023 17.3101 42.0959 16.2063 47.2875 15.1045C47.2995 15.1504 47.3115 15.1963 47.3214 15.2422H47.3234Z" fill="#625AFA"/>
<path d="M19.3113 11.9478C17.2674 8.4089 15.2235 4.86998 13.1816 1.33505C13.6367 0.987739 13.9181 1.03964 14.1836 1.55261C14.6566 2.47077 15.2015 3.35501 15.7305 4.27916C15.6227 4.40091 15.5169 4.52067 15.4171 4.63445C16.7664 7.0596 18.2115 9.4089 19.5289 11.8281C19.457 11.868 19.3852 11.9099 19.3113 11.9498V11.9478Z" fill="#625AFA"/>
<path d="M47.7616 22.7192C46.8813 22.6294 46.0011 22.5415 45.1228 22.4497C43.5021 22.2801 41.8634 21.8789 40.2626 21.9986C38.2586 22.1483 36.3464 21.6892 34.3883 21.6034C33.6318 21.5695 32.8773 21.4497 32.1209 21.3819C31.8175 21.3539 31.6618 21.2601 31.8414 20.8809C37.1388 21.4377 42.4482 21.9946 47.7576 22.5535C47.7576 22.6094 47.7576 22.6653 47.7596 22.7192H47.7616Z" fill="#625AFA"/>
<path d="M47.7667 17.7278C46.4114 17.8716 45.0561 18.0193 43.7008 18.161C42.5052 18.2867 41.2437 18.2069 40.1239 18.5682C37.4253 19.4364 34.601 19.139 31.9004 19.7478C31.6369 19.2827 31.8864 19.2209 32.1978 19.1889C34.0202 18.9993 35.8445 18.8097 37.6669 18.6181C40.7407 18.2967 43.8146 17.9714 46.8904 17.65C47.1798 17.6201 47.4712 17.6021 47.7627 17.5781C47.7647 17.628 47.7667 17.6799 47.7687 17.7298L47.7667 17.7278Z" fill="#625AFA"/>
<path d="M41.0365 4.96301C40.5375 5.4181 40.0425 5.87518 39.5415 6.32628C38.1523 7.57578 36.7551 8.81929 35.3758 10.0808C35.2461 10.1985 34.8629 10.2904 35.1682 10.6177C35.1842 10.6357 35.0844 10.7953 35.0126 10.8592C33.5575 12.1746 32.0984 13.486 30.6034 14.8293C30.5076 14.6516 30.4257 14.4999 30.3359 14.3343C33.8728 11.1506 37.3898 7.98496 40.9048 4.82129C40.9487 4.86919 40.9906 4.9171 41.0345 4.965L41.0365 4.96301Z" fill="#625AFA"/>
<path d="M30.1597 14.0374C30.0399 13.8318 29.9581 13.6901 29.8643 13.5284C32.9142 10.1412 35.9541 6.76391 38.996 3.38867C39.0439 3.42659 39.0918 3.46252 39.1397 3.50044C39.014 3.65613 38.8982 3.8198 38.7645 3.96751C37.2036 5.70204 35.6367 7.42858 34.0818 9.1711C33.9441 9.32479 33.5728 9.45653 33.8802 9.78986C33.9042 9.81581 33.8064 9.98348 33.7385 10.0594C32.5669 11.3687 31.3892 12.6721 30.1597 14.0374Z" fill="#625AFA"/>
<path d="M29.6751 13.1999C29.3238 12.9145 29.3098 12.7149 29.5393 12.4035C31.9445 9.11609 34.3317 5.81469 36.719 2.51329C36.8008 2.39952 36.8387 2.25181 36.8986 2.12207C36.9645 2.17996 37.0323 2.23784 37.0982 2.29373C37.0343 2.4075 36.9824 2.52926 36.9066 2.63505C35.4715 4.61309 34.0323 6.58914 32.6032 8.57117C32.4934 8.72287 32.1661 8.89652 32.5413 9.13006C32.5593 9.14004 32.5094 9.30171 32.4595 9.36958C31.5413 10.6411 30.6172 11.9085 29.6771 13.2019L29.6751 13.1999Z" fill="#625AFA"/>
<path d="M20.0403 11.1883C18.4834 7.68937 16.9245 4.19237 15.3496 0.653444C15.5991 0.58558 15.7908 0.53568 16.0502 0.46582C16.4514 1.35604 16.8506 2.24227 17.2718 3.17839C16.8327 3.43189 17.0143 3.74127 17.17 4.08658C18.15 6.26223 19.1161 8.44586 20.0822 10.6275C20.152 10.7832 20.1919 10.9528 20.2458 11.1165C20.176 11.1404 20.1081 11.1644 20.0383 11.1883H20.0403Z" fill="#625AFA"/>
<path d="M29.0542 12.4567C28.8905 12.2671 28.7728 12.1294 28.645 11.9817C30.7129 8.40484 32.7668 4.84794 34.8227 1.28906C34.8806 1.319 34.9404 1.34894 34.9983 1.37888C34.9125 1.54256 34.8327 1.70822 34.7408 1.8679C33.5412 3.95174 32.3357 6.03557 31.142 8.12339C31.0582 8.2691 30.7448 8.46471 31.148 8.63637C31.168 8.64435 31.138 8.83797 31.0921 8.91981C30.4315 10.0755 29.7648 11.2292 29.0562 12.4567H29.0542Z" fill="#625AFA"/>
<path d="M32.8131 0.750824C32.4238 1.63905 32.0386 2.52927 31.6454 3.4155C30.9987 4.86859 30.344 6.3157 29.7053 7.77079C29.6254 7.95442 29.364 8.17797 29.7352 8.37159C29.7712 8.39155 29.7173 8.64304 29.6614 8.76879C29.2502 9.7169 28.827 10.661 28.3939 11.6391C28.0706 11.4754 27.847 11.3516 28.0506 10.9025C29.5177 7.65103 30.9588 4.38755 32.4099 1.12807C32.4797 0.970385 32.5676 0.820684 32.6474 0.666992L32.8131 0.748828V0.750824Z" fill="#625AFA"/>
<path d="M17.5606 0.269303C17.818 0.223395 17.9977 0.191459 18.2572 0.143555C18.4687 0.792257 18.6783 1.43497 18.8839 2.07768C18.8999 2.12758 18.9218 2.2194 18.9019 2.23337C18.319 2.62459 18.7622 3.06371 18.8799 3.44096C19.5586 5.61063 20.2751 7.77031 20.9717 9.93398C21.0256 10.1037 21.0436 10.2853 21.0775 10.461C21.0136 10.4769 20.9498 10.4929 20.8859 10.5089C19.7821 7.11562 18.6783 3.72439 17.5566 0.273295L17.5606 0.269303Z" fill="#625AFA"/>
<path d="M28.4459 8.33596C28.1665 9.19025 27.887 10.0466 27.6036 10.9188C27.1485 10.7611 27.0687 10.5276 27.2084 10.1044C28.2543 6.94275 29.2762 3.77508 30.3102 0.60941C30.3521 0.483662 30.4199 0.365898 30.4758 0.244141C30.5277 0.260109 30.5776 0.276077 30.6295 0.292045C30.5776 0.465698 30.5317 0.639351 30.4758 0.813003C29.7333 3.10043 28.9868 5.38586 28.2563 7.67728C28.1964 7.8669 28.2643 8.09843 28.2722 8.31201C28.3301 8.31999 28.388 8.32797 28.4459 8.33596Z" fill="#625AFA"/>
<path d="M21.8219 9.86227C21.1352 6.63673 20.4506 3.40918 19.7261 0C20.0614 0.135729 20.3967 0.161677 20.4885 0.325349C20.7999 0.876247 20.7161 1.43114 20.3568 1.68862C20.9257 4.38723 21.4985 7.0998 22.0694 9.81038C21.9875 9.82834 21.9057 9.84431 21.8239 9.86227H21.8219Z" fill="#625AFA"/>
<path d="M28.4486 0.160252C27.8857 2.82892 27.3229 5.49558 26.76 8.16425C26.8119 8.15826 26.8618 8.15027 26.9137 8.14429C26.9636 8.31994 27.0793 8.50556 27.0534 8.66724C26.9696 9.19019 26.8338 9.70516 26.7141 10.2361C26.235 10.1363 26.1292 9.87682 26.227 9.43371C26.8658 6.49159 27.4865 3.54548 28.1153 0.60137C28.1512 0.433705 28.2211 0.274025 28.2729 0.110352C28.3308 0.12632 28.3887 0.142288 28.4486 0.158256V0.160252Z" fill="#625AFA"/>
<path d="M25.4565 8.428C25.5922 8.43598 25.71 8.44397 25.8557 8.45395C25.8118 8.85714 25.7699 9.23239 25.7259 9.62361C25.2589 9.54776 25.0872 9.36812 25.1451 8.87311C25.4505 6.24437 25.71 3.60964 25.9894 0.978896C26.0174 0.715423 26.0673 0.45195 26.1092 0.188477C26.175 0.196461 26.2409 0.204445 26.3068 0.212429C26.0253 2.92501 25.7439 5.63758 25.4565 8.428Z" fill="#625AFA"/>
<path d="M22.8584 9.30658C22.545 6.30658 22.2296 3.30858 21.9023 0.172852C22.1817 0.254688 22.4611 0.252692 22.5729 0.38842C22.7386 0.592013 22.6747 0.831534 22.3613 0.937323C22.3035 0.957283 22.2715 1.15688 22.2835 1.26666C22.533 3.71177 22.7905 6.15489 23.044 8.6C23.0679 8.82555 23.0799 9.05109 23.0979 9.27664C23.018 9.28662 22.9402 9.2966 22.8604 9.30658H22.8584Z" fill="#625AFA"/>
<path d="M24.3155 8.66478C24.4453 8.76458 24.577 8.86438 24.7067 8.96617C24.1099 9.08194 23.9702 8.83045 23.9742 8.32945C24.0002 5.92625 23.9842 3.52107 23.9862 1.11588C23.9862 0.908291 24.0081 0.702702 24.0201 0.495117C24.07 0.497113 24.1199 0.499109 24.1698 0.503101V8.69073C24.2177 8.68274 24.2656 8.67276 24.3135 8.66478H24.3155Z" fill="#625AFA"/>
</svg>
