<svg width="193" height="32" viewBox="0 0 193 32" fill="none" xmlns="http://www.w3.org/2000/svg">
  <path d="M46.3828 23.5878V5.56738H53.4023C54.8753 5.56738 56.1756 5.79502 57.3034 6.25029C58.4312 6.70556 59.3164 7.40186 59.9606 8.33919C60.6034 9.27651 60.9247 10.4742 60.9247 11.9293C60.9247 13.9869 60.2121 15.5566 58.7853 16.6397C57.3584 17.7229 55.2472 18.2644 52.4516 18.2644H49.9342V23.5893H46.3828V23.5878ZM53.1226 8.3258H49.9342V15.4524H52.6183C53.0274 15.4524 53.5035 15.4346 54.0451 15.3974C54.5852 15.3617 55.1029 15.2337 55.5969 15.015C56.0908 14.7963 56.5015 14.4422 56.8273 13.9498C57.1531 13.4588 57.3168 12.758 57.3168 11.8475C57.3168 10.9369 57.1531 10.2957 56.8273 9.81362C56.5015 9.33156 56.0998 8.9849 55.6251 8.77661C55.149 8.56683 54.6834 8.44036 54.2266 8.39424C53.7698 8.3496 53.4008 8.3258 53.1226 8.3258Z" fill="#EEF2FB"/>
  <path d="M69.511 23.9434C67.0874 23.9434 65.2559 23.2843 64.015 21.9631C62.7742 20.6434 62.1553 18.8923 62.1553 16.7067C62.1553 15.2322 62.4261 13.9125 62.9661 12.7476C63.5062 11.5826 64.3037 10.6587 65.3571 9.97577C66.4104 9.29286 67.7019 8.95215 69.2299 8.95215C71.4288 8.95215 73.1026 9.65737 74.2498 11.0678C75.3969 12.4783 75.8759 14.4392 75.69 16.9521L65.5936 17.0608C65.6502 18.4995 66.0221 19.5722 66.7125 20.2819C67.4013 20.9916 68.3431 21.3472 69.5363 21.3472C70.2817 21.3472 70.8784 21.2207 71.3262 20.9648C71.774 20.7104 72.1088 20.3831 72.3334 19.9813C72.5566 19.5811 72.6965 19.1616 72.753 18.7256L75.9131 19.2166C75.7822 20.1093 75.4742 20.9142 74.9907 21.6328C74.5057 22.3514 73.8108 22.9153 72.9077 23.326C72.0031 23.7351 70.8709 23.9404 69.5096 23.9404L69.511 23.9434ZM69.2596 11.7121C68.3089 11.7121 67.5308 12.0081 66.9237 12.5988C66.3182 13.1909 65.912 14.0048 65.7067 15.0418L72.4182 14.96C72.3617 13.8858 72.0448 13.0764 71.4675 12.5304C70.8888 11.9843 70.1538 11.7121 69.2581 11.7121H69.2596Z" fill="#EEF2FB"/>
  <path d="M78.0127 27.902V9.33549H81.0612L80.9779 13.4315L81.3692 13.4582C81.9658 10.4543 83.5876 8.95312 86.2359 8.95312C88.1001 8.95312 89.5537 9.62264 90.5981 10.9602C91.6426 12.2977 92.1648 14.1322 92.1648 16.4621C92.1648 18.7921 91.656 20.576 90.6413 21.9224C89.6251 23.2704 88.2132 23.9429 86.404 23.9429C84.9876 23.9429 83.8866 23.5293 83.104 22.7006C82.3214 21.8719 81.762 20.7575 81.4258 19.356H80.9779C81.146 20.1936 81.2859 21.0178 81.3975 21.8272C81.5091 22.6366 81.5656 23.3969 81.5656 24.1066V27.902H78.0142H78.0127ZM85.2286 21.1041C86.2731 21.1041 87.0795 20.6727 87.6478 19.8068C88.2162 18.9423 88.5003 17.8369 88.5003 16.4889C88.5003 15.141 88.2117 13.9953 87.6329 13.1577C87.0542 12.3201 86.2433 11.902 85.2003 11.902C84.3984 11.902 83.7274 12.1207 83.1873 12.5566C82.6458 12.994 82.2366 13.549 81.9569 14.2215C81.6772 14.8955 81.5373 15.5769 81.5373 16.2687V16.6511C81.5373 17.3057 81.6772 17.9753 81.9569 18.6582C82.2366 19.3411 82.6517 19.9183 83.2007 20.3915C83.7497 20.8646 84.4267 21.1012 85.2286 21.1012V21.1041Z" fill="#EEF2FB"/>
  <path d="M94.4561 27.902V9.33549H97.5046L97.4213 13.4315L97.8126 13.4582C98.4092 10.4543 100.031 8.95312 102.679 8.95312C104.543 8.95312 105.997 9.62264 107.042 10.9602C108.086 12.2977 108.608 14.1322 108.608 16.4621C108.608 18.7921 108.099 20.576 107.085 21.9224C106.068 23.2704 104.657 23.9429 102.847 23.9429C101.431 23.9429 100.33 23.5293 99.5474 22.7006C98.7648 21.8719 98.2054 20.7575 97.8691 19.356H97.4213C97.5894 20.1936 97.7293 21.0178 97.8408 21.8272C97.9524 22.6366 98.009 23.3969 98.009 24.1066V27.902H94.4575H94.4561ZM101.672 21.1041C102.716 21.1041 103.523 20.6727 104.091 19.8068C104.66 18.9423 104.944 17.8369 104.944 16.4889C104.944 15.141 104.655 13.9953 104.076 13.1577C103.498 12.3201 102.687 11.902 101.644 11.902C100.842 11.902 100.171 12.1207 99.6307 12.5566C99.0891 12.994 98.68 13.549 98.4003 14.2215C98.1205 14.8955 97.9807 15.5769 97.9807 16.2687V16.6511C97.9807 17.3057 98.1205 17.9753 98.4003 18.6582C98.68 19.3411 99.0951 19.9183 99.6441 20.3915C100.193 20.8646 100.87 21.1012 101.672 21.1012V21.1041Z" fill="#EEF2FB"/>
  <path d="M117.611 23.9434C115.187 23.9434 113.355 23.2843 112.115 21.9631C110.874 20.6434 110.255 18.8923 110.255 16.7067C110.255 15.2322 110.526 13.9125 111.066 12.7476C111.606 11.5826 112.403 10.6587 113.457 9.97577C114.51 9.29286 115.801 8.95215 117.329 8.95215C119.528 8.95215 121.202 9.65737 122.349 11.0678C123.496 12.4783 123.976 14.4392 123.79 16.9521L113.693 17.0608C113.75 18.4995 114.122 19.5722 114.812 20.2819C115.501 20.9916 116.443 21.3472 117.636 21.3472C118.381 21.3472 118.978 21.2207 119.426 20.9648C119.874 20.7104 120.208 20.3831 120.433 19.9813C120.656 19.5811 120.796 19.1616 120.853 18.7256L124.013 19.2166C123.882 20.1093 123.574 20.9142 123.09 21.6328C122.605 22.3514 121.91 22.9153 121.007 23.326C120.103 23.7351 118.971 23.9404 117.609 23.9404L117.611 23.9434ZM117.359 11.7121C116.409 11.7121 115.63 12.0081 115.023 12.5988C114.418 13.1909 114.012 14.0048 113.806 15.0418L120.518 14.96C120.461 13.8858 120.144 13.0764 119.567 12.5304C118.988 11.9843 118.253 11.7121 117.358 11.7121H117.359Z" fill="#EEF2FB"/>
  <path d="M126.112 23.5879V9.33606H129.161L129.021 14.661H129.469C129.655 12.6956 130.103 11.2568 130.811 10.3463C131.519 9.43574 132.517 8.98047 133.803 8.98047C134.026 8.98047 134.264 9.00279 134.516 9.04891C134.767 9.09503 135.033 9.16347 135.313 9.25423L135.145 12.9678C134.846 12.822 134.533 12.7179 134.208 12.6539C133.882 12.5899 133.578 12.5587 133.298 12.5587C132.236 12.5587 131.402 12.9916 130.796 13.856C130.19 14.7205 129.813 15.9182 129.664 17.4462V23.5894H126.112V23.5879Z" fill="#EEF2FB"/>
  <path d="M136.991 23.5873V9.33549H139.954L139.843 14.3599H140.262C140.56 12.4852 141.097 11.1149 141.871 10.2505C142.644 9.38608 143.665 8.95312 144.933 8.95312C146.2 8.95312 147.249 9.41286 147.911 10.3323C148.573 11.2518 148.923 12.5849 148.96 14.3316H149.352C149.649 12.4569 150.223 11.0926 151.071 10.2356C151.92 9.38013 152.977 8.95312 154.245 8.95312C155.289 8.95312 156.123 9.19415 156.747 9.6762C157.372 10.1583 157.838 10.7727 158.146 11.5196C158.454 12.2665 158.659 13.0402 158.762 13.8406C158.865 14.6425 158.915 15.3612 158.915 15.9979V23.5888H155.364V16.4086C155.364 16.0634 155.35 15.6394 155.322 15.1395C155.294 14.6396 155.206 14.1471 155.056 13.665C154.907 13.183 154.669 12.7828 154.343 12.4644C154.017 12.146 153.565 11.9868 152.986 11.9868C152.036 11.9868 151.262 12.4926 150.665 13.5029C150.069 14.5131 149.743 15.8745 149.686 17.5854V23.5918H146.218V16.547C146.218 16.2018 146.205 15.7733 146.177 15.2645C146.148 14.7556 146.06 14.2498 145.91 13.7484C145.761 13.2485 145.523 12.8289 145.198 12.4926C144.872 12.1564 144.409 11.9868 143.814 11.9868C142.844 11.9868 142.066 12.4926 141.478 13.5029C140.89 14.5131 140.578 15.8834 140.541 17.6122V23.5918H136.989L136.991 23.5873Z" fill="#EEF2FB"/>
  <path d="M163.391 7.36896C161.938 7.36896 161.21 6.79615 161.21 5.64904C161.21 4.50193 161.938 3.90234 163.391 3.90234C164.845 3.90234 165.601 4.48557 165.601 5.64904C165.601 6.81252 164.864 7.36896 163.391 7.36896ZM161.63 23.5877V9.33586H165.181V23.5877H161.63Z" fill="#EEF2FB"/>
  <path d="M168.088 23.5873V9.33549H171.108L170.968 14.3599H171.388C171.705 12.4123 172.297 11.0242 173.164 10.1955C174.032 9.36674 175.145 8.95312 176.506 8.95312C177.55 8.95312 178.398 9.16737 179.05 9.59437C179.703 10.0229 180.206 10.5823 180.56 11.2741C180.914 11.966 181.157 12.7218 181.288 13.5401C181.419 14.3599 181.484 15.1603 181.484 15.9429V23.5873H177.961V16.352C177.961 15.9697 177.937 15.5293 177.891 15.0279C177.845 14.528 177.742 14.04 177.583 13.5669C177.424 13.0937 177.164 12.7024 176.801 12.393C176.438 12.0835 175.929 11.9288 175.277 11.9288C174.103 11.9288 173.207 12.4614 172.593 13.5267C171.977 14.592 171.66 16.0158 171.642 17.7997V23.5888H168.091L168.088 23.5873Z" fill="#EEF2FB"/>
  <path d="M189.371 23.8878C187.749 23.8878 186.584 23.4564 185.875 22.5905C185.167 21.726 184.812 20.5194 184.812 18.9721V12.0909H182.826L182.883 9.49765H183.945C184.597 9.46195 185.073 9.30721 185.372 9.03346C185.669 8.7597 185.857 8.32377 185.931 7.72269L186.183 6.13965H188.252V9.33399H192.028V12.1728H188.252V18.8069C188.252 19.5538 188.434 20.0627 188.798 20.3364C189.161 20.6087 189.624 20.7456 190.182 20.7456C190.499 20.7456 190.825 20.7039 191.161 20.6221C191.497 20.5402 191.804 20.4078 192.083 20.2263V23.4474C191.542 23.629 191.049 23.748 190.602 23.803C190.154 23.8581 189.743 23.8849 189.371 23.8849V23.8878Z" fill="#EEF2FB"/>
  <path d="M0 16.0224C0.156487 16.0303 0.301796 16.0415 0.445509 16.0415C4.46148 16.0415 8.47904 16.0415 12.495 16.0415C12.5988 16.0415 12.709 16.0575 12.8032 16.0271C12.8687 16.0064 12.9118 15.9186 13.0459 15.7717H6.48303C6.46387 15.604 6.4495 15.4794 6.43513 15.3613H0V16.0208V16.0224Z" fill="#623BA5"/>
  <path d="M0.0942116 17.9864C1.25349 18.0583 12.7697 16.7489 13.0156 16.4359C10.8056 16.6643 8.68343 16.883 6.57086 17.1018C6.51018 16.9437 6.45908 16.8112 6.40958 16.6818C4.27625 16.907 2.17485 17.1289 0.041517 17.3541C0.0606786 17.5904 0.0766467 17.7772 0.0942116 17.9864Z" fill="#623BA5"/>
  <path d="M6.53892 14.0104C4.42635 13.7884 2.33932 13.5713 0.205988 13.3477C0.178842 13.6016 0.156487 13.8092 0.132535 14.0423C4.43912 14.4926 8.68822 14.9381 12.9389 15.382C12.9485 15.307 12.9565 15.2319 12.9661 15.1553C10.8471 14.8487 8.70419 14.7178 6.57086 14.4351C6.55968 14.2802 6.5501 14.1541 6.53892 14.0088V14.0104Z" fill="#623BA5"/>
  <path d="M0.477445 20.0208C4.6978 19.1234 8.86228 18.2371 13.0267 17.3509C13.0236 17.2934 13.0188 17.2375 13.0156 17.18C12.8862 17.18 12.7521 17.1577 12.6275 17.1832C10.7162 17.5792 8.80639 17.9816 6.89661 18.3792C6.85669 18.3872 6.81357 18.3745 6.77685 18.3713C6.72256 18.2467 6.67305 18.1317 6.61876 18.0088C4.50938 18.4575 2.43034 18.9014 0.327345 19.3485C0.378443 19.5753 0.418363 19.7589 0.475848 20.0192L0.477445 20.0208Z" fill="#623BA5"/>
  <path d="M0.469461 12.0687C4.68982 12.9629 8.8511 13.8459 13.014 14.7289C13.0299 14.6571 13.0475 14.5852 13.0635 14.5134C10.9764 13.9753 8.84311 13.6319 6.75449 13.121V12.6994C4.72335 12.2683 2.71457 11.8419 0.673852 11.4092C0.606786 11.6263 0.547705 11.818 0.469461 12.0687Z" fill="#623BA5"/>
  <path d="M1.09381 21.9242C5.13533 20.602 9.1513 19.323 13.1513 17.9928C13.1273 17.9194 13.105 17.8459 13.081 17.7725C11.1281 18.4016 9.17525 19.0323 7.16966 19.679C7.12655 19.1904 6.8487 19.3405 6.58683 19.4252C5.52016 19.7749 4.4519 20.1246 3.38363 20.4727C2.55808 20.7425 1.73094 21.0092 0.873453 21.287C0.953293 21.5154 1.01876 21.7038 1.09541 21.9242H1.09381Z" fill="#623BA5"/>
  <path d="M1.63353 23.1361C1.75489 23.3629 1.84591 23.5273 1.93214 23.6886C3.52415 23.1888 13.1816 18.7529 13.2599 18.416C11.414 19.2351 9.61437 20.0351 7.79561 20.8431C7.70938 20.7265 7.63433 20.6244 7.54491 20.503C5.58244 21.378 3.62635 22.2483 1.63353 23.1361Z" fill="#623BA5"/>
  <path d="M1.08743 10.1669C5.13214 11.4778 9.12575 12.7729 13.1178 14.0679C13.1417 13.9992 13.1641 13.9305 13.188 13.8619C11.1665 13.1178 9.08743 12.5349 7.03393 11.818C7.16008 11.505 7.06747 11.3756 6.76567 11.291C6.05509 11.0914 5.35888 10.8391 4.65469 10.6108C3.56088 10.2563 2.46707 9.90339 1.36048 9.54571C1.26786 9.75649 1.18962 9.93054 1.08583 10.1669H1.08743Z" fill="#623BA5"/>
  <path d="M3.002 25.3892C6.54371 23.3325 10.0503 21.3413 13.525 19.2974C13.4882 19.2319 13.4499 19.1681 13.4132 19.1026C11.786 20.0383 10.1589 20.9741 8.53174 21.9114C8.42315 21.8076 8.33054 21.7198 8.22515 21.6192C6.3521 22.7018 4.4982 23.7733 2.62834 24.8543C2.77206 25.0587 2.88064 25.2152 3.002 25.3892Z" fill="#623BA5"/>
  <path d="M13.2615 13.4052C13.295 13.3413 13.3285 13.279 13.3637 13.2152C11.4347 12.2587 9.42276 11.4731 7.47785 10.5437C7.4986 10.4 7.51777 10.2739 7.53852 10.1301C5.78204 9.3493 4.04152 8.57485 2.27545 7.78922C2.15729 7.9984 2.06148 8.17086 1.9497 8.36886C5.75329 10.0615 9.50739 11.7333 13.2615 13.4036V13.4052Z" fill="#623BA5"/>
  <path d="M9.05868 22.6124C7.29581 23.893 5.57285 25.1449 3.81956 26.4192C3.97605 26.598 4.10858 26.7465 4.23633 26.8918C7.84671 24.4232 13.6559 20.091 13.7246 19.7238C12.2331 20.8032 10.804 21.8363 9.38283 22.8647C9.25988 22.7689 9.16727 22.697 9.05709 22.6124H9.05868Z" fill="#623BA5"/>
  <path d="M14.0024 20.3976C12.7553 21.5202 11.5545 22.598 10.3361 23.695C10.0982 23.406 9.91776 23.5337 9.70539 23.7285C8.80958 24.5509 7.9026 25.3589 6.9988 26.1733C6.39521 26.7162 5.79481 27.2607 5.16407 27.8307C5.34132 27.9824 5.48343 28.1022 5.6511 28.2459C8.47106 25.6958 11.2719 23.1617 14.0695 20.6228C14.087 20.6068 14.0407 20.5206 14.0024 20.3992V20.3976Z" fill="#623BA5"/>
  <path d="M8.09102 8.88303C6.52136 7.97765 4.96128 7.07864 3.39002 6.17325C3.2479 6.36966 3.13932 6.51976 3.00519 6.70339C6.53413 8.73932 10.0184 10.7481 13.501 12.7585C13.5409 12.6914 13.5808 12.6228 13.6208 12.5557C11.7477 11.4715 9.87465 10.3872 7.9984 9.2998C8.03034 9.15769 8.05749 9.03154 8.09102 8.88463V8.88303Z" fill="#623BA5"/>
  <path d="M11.0196 24.1868C9.58563 25.7836 8.18204 27.3485 6.77844 28.915C6.7513 28.9453 6.73852 28.9884 6.7002 29.0635C6.85669 29.1689 7.00679 29.2695 7.17445 29.3828C8.12295 28.3305 9.04431 27.3102 9.96567 26.2866C11.4028 24.6898 12.8383 23.093 14.2707 21.493C14.3521 21.402 14.392 21.2759 14.4511 21.1673C14.4096 21.1449 14.3697 21.1226 14.3281 21.1002C13.3509 22.1828 12.3721 23.2655 11.3964 24.3465C11.2607 24.2906 11.1553 24.2459 11.0196 24.1884V24.1868Z" fill="#623BA5"/>
  <path d="M14.8168 21.707C14.6874 21.8699 14.5772 22.0008 14.4782 22.1381C13.8762 22.9653 13.2822 23.7956 12.6723 24.6164C12.6004 24.7138 12.4551 24.7601 12.3401 24.8192C12.2044 24.8878 12.0096 24.907 11.9297 25.014C10.7513 26.6124 9.58723 28.2204 8.42315 29.8283C8.37525 29.8938 8.35289 29.9784 8.30978 30.0711C8.48543 30.1605 8.64032 30.2387 8.78403 30.3122C10.0311 28.8798 14.8727 22.0327 14.8168 21.707Z" fill="#623BA5"/>
  <path d="M13.7613 12.0958C13.806 12.0351 13.8523 11.9745 13.897 11.9154C12.1581 10.6108 10.3729 9.36527 8.62595 8.06387C8.68024 7.92814 8.72814 7.81317 8.77765 7.68862C7.4028 6.69062 6.0519 5.71018 4.73134 4.7521C4.5493 4.89581 4.4024 5.01078 4.20918 5.16248C7.43792 7.50659 10.5996 9.8012 13.7613 12.0974V12.0958Z" fill="#623BA5"/>
  <path d="M15.3996 22.3888C15.3645 22.3792 15.3309 22.3681 15.2958 22.3585C15.2208 22.4814 15.1441 22.6028 15.0723 22.7273C14.6411 23.4699 14.2132 24.2156 13.7756 24.9549C13.715 25.0555 13.576 25.212 13.517 25.1944C13.2008 25.1018 13.1385 25.3317 13.0299 25.5202C12.3178 26.7513 11.604 27.9824 10.8934 29.2136C10.5852 29.7469 10.2834 30.2834 9.93373 30.9014C10.2371 30.8743 10.4335 31.2128 10.6539 30.8279C12.2092 28.1166 13.7772 25.4116 15.3357 22.7002C15.3852 22.6124 15.3788 22.4926 15.398 22.3872L15.3996 22.3888Z" fill="#623BA5"/>
  <path d="M9.57126 6.53573C8.41517 5.49621 7.28303 4.48064 6.13174 3.44591C5.96248 3.58643 5.82196 3.70459 5.64631 3.8499C8.48224 6.4016 11.2862 8.92455 14.0886 11.4459C14.1397 11.39 14.1908 11.3357 14.2403 11.2798C12.6244 9.81876 11.0068 8.35769 9.37166 6.88064C9.44032 6.76248 9.501 6.65549 9.56966 6.53573H9.57126Z" fill="#623BA5"/>
  <path d="M11.7158 31.3964C12.1086 31.6407 12.3257 31.5657 12.4727 31.1489C12.6339 30.6906 12.8607 30.2531 13.0603 29.8076C13.9992 27.7014 14.9397 25.5936 15.8755 23.4858C15.9409 23.3389 15.9665 23.1745 16.0112 23.018C15.9697 23.0068 15.9281 22.9956 15.885 22.986C15.8371 23.0723 15.7828 23.1569 15.7429 23.2479C15.4603 23.8818 15.1856 24.5206 14.8918 25.1513C14.8391 25.2647 14.7194 25.3509 14.6172 25.4355C14.5006 25.5329 14.3122 25.5888 14.2563 25.7086C13.402 27.5944 12.5653 29.4866 11.7158 31.398V31.3964Z" fill="#623BA5"/>
  <path d="M13.4675 31.8004C13.7613 31.8419 13.9992 32.0335 14.1285 31.6263C14.9557 29.0347 15.802 26.4495 16.6371 23.8611C16.6675 23.7653 16.6403 23.6503 16.6403 23.5449C16.412 23.901 16.3162 24.2747 16.1629 24.6228C16.008 24.9757 16.123 25.5266 15.5146 25.5824C15.4858 25.5856 15.4587 25.6782 15.4411 25.7325C14.7864 27.7397 14.1349 29.7469 13.4659 31.8004H13.4675Z" fill="#623BA5"/>
  <path d="M14.4671 10.7992C14.5246 10.7529 14.5836 10.705 14.6411 10.6587C13.1753 9.02515 11.7094 7.39162 10.2291 5.74052C10.483 5.52974 10.4224 5.36687 10.2228 5.15449C9.48503 4.36567 8.76966 3.55449 8.04631 2.7513C7.79508 2.47132 7.51457 2.466 7.20479 2.73533C9.62555 5.42435 12.0463 8.11178 14.4655 10.7992H14.4671Z" fill="#623BA5"/>
  <path d="M15.2351 31.9649C15.3709 31.9808 15.4411 31.9952 15.513 31.9952C15.5992 31.9952 15.6854 31.984 15.802 31.976C16.3369 29.3429 16.9469 26.7401 17.3573 24.0958C17.1944 24.4311 17.1226 24.7856 17.0411 25.1369C17.0156 25.2471 16.9661 25.4403 16.915 25.4435C16.5014 25.4755 16.5477 25.7964 16.4918 26.0583C16.3657 26.6507 16.2347 27.2415 16.1086 27.8339C15.8196 29.1928 15.5321 30.5517 15.2335 31.9633L15.2351 31.9649Z" fill="#623BA5"/>
  <path d="M16.9693 31.9329C17.3238 32.0112 17.5281 31.9713 17.5649 31.5896C17.7916 29.3206 18.0343 27.0531 18.2675 24.784C18.2754 24.7026 18.2307 24.6164 18.21 24.5333C18.0838 24.7074 18.0711 24.8814 18.0263 25.0475C18.0008 25.1465 17.9273 25.2327 17.8715 25.3222C17.7916 25.4451 17.6639 25.5553 17.6335 25.6878C17.5745 25.9449 17.5681 26.2164 17.5409 26.4814C17.3509 28.2906 17.1609 30.1014 16.9693 31.9329Z" fill="#623BA5"/>
  <path d="M8.81118 1.75808C10.8758 4.59721 12.9022 7.38523 14.9285 10.1717C14.9876 10.1301 15.0467 10.087 15.1058 10.0455C13.8172 8.26507 12.5285 6.48463 11.3118 4.80479C11.3357 4.54451 11.4204 4.34331 11.3517 4.24591C10.7098 3.32455 10.0407 2.42076 9.36527 1.49142C9.17685 1.58084 9.02036 1.65589 8.81118 1.75489V1.75808Z" fill="#623BA5"/>
  <path d="M22.5613 22.8311C23.6232 24.6739 24.6643 26.483 25.7118 28.289C25.7581 28.3705 25.8922 28.4966 25.9114 28.4854C26.1828 28.3146 26.2132 28.5749 26.2866 28.701C26.7018 29.402 27.101 30.111 27.513 30.8136C27.5737 30.919 27.6679 31.0052 27.7461 31.0994C27.7764 31.0739 27.8052 31.0483 27.8355 31.0228C26.2036 28.1948 24.5701 25.3653 22.903 22.4766C22.7641 22.622 22.6651 22.7242 22.5613 22.8311Z" fill="#623BA5"/>
  <path d="M22.3457 23.1297C21.9992 23.2607 21.9289 23.4156 22.0679 23.7222C22.8886 25.5265 23.687 27.3389 24.4966 29.1481C24.5365 29.2359 24.6403 29.3892 24.6579 29.3812C25.0315 29.2216 24.9932 29.5697 25.0683 29.7277C25.3317 30.2739 25.5665 30.8327 25.8172 31.3852C25.8539 31.4667 25.921 31.5337 25.9737 31.6072C26.012 31.588 26.0487 31.5673 26.087 31.5481C24.8431 28.7505 23.5992 25.9513 22.3441 23.1313L22.3457 23.1297Z" fill="#623BA5"/>
  <path d="M23.6136 21.6319C25.0443 23.2192 26.4511 24.7824 27.8611 26.3409C27.9058 26.3904 28.0144 26.4575 28.0319 26.4431C28.2938 26.2291 28.3705 26.5054 28.4774 26.622C29.2583 27.4747 30.0264 28.3385 30.8008 29.196C30.8854 29.2886 30.986 29.3669 31.0802 29.4515C31.1106 29.418 31.1393 29.3828 31.1697 29.3493C28.7489 26.6603 26.3281 23.9713 23.893 21.2663C23.7876 21.4036 23.7174 21.4962 23.6152 21.6319H23.6136Z" fill="#623BA5"/>
  <path d="M29.4323 30.3888C29.4691 30.3585 29.5074 30.3281 29.5441 30.2978C27.513 27.5018 25.4818 24.7058 23.4571 21.9162C23.1824 22.1046 23.125 22.2579 23.3054 22.5022C24.4806 24.1006 25.6415 25.7086 26.812 27.3118C26.8679 27.3884 26.9956 27.5114 27.0196 27.4954C27.2942 27.3293 27.3533 27.5768 27.4539 27.7142C28.0335 28.5014 28.6052 29.2934 29.1816 30.0838C29.2599 30.1892 29.3493 30.2866 29.4339 30.3872L29.4323 30.3888Z" fill="#623BA5"/>
  <path d="M24.2124 31.8914C24.2491 31.877 24.2842 31.8627 24.321 31.8483C23.4379 29.1257 22.5549 26.4016 21.6591 23.6407C21.4834 23.7621 21.3653 23.8435 21.2311 23.9361C21.9082 26.02 22.5804 28.0862 23.1968 29.9864C23.9649 30.5102 23.7828 31.3757 24.2124 31.8914Z" fill="#623BA5"/>
  <path d="M22.4032 32C22.4591 31.9856 22.515 31.9729 22.5709 31.9585C22.02 29.3653 21.4691 26.7721 20.9182 24.1788C20.8543 24.1677 20.7888 24.1565 20.725 24.1453C20.6531 24.3258 20.4934 24.5238 20.5254 24.6834C20.923 26.6555 21.3461 28.6212 21.7693 30.5868C21.7884 30.6763 21.8715 30.8343 21.8986 30.8295C22.226 30.7625 22.1669 31.0291 22.2116 31.1872C22.2866 31.4555 22.3425 31.7285 22.4048 32H22.4032Z" fill="#623BA5"/>
  <path d="M32.594 28.3321C32.6307 28.2938 32.6675 28.2555 32.7042 28.2156C29.9018 25.6926 27.101 23.1681 24.2986 20.6451C24.0782 20.8591 24.0271 20.9996 24.2475 21.196C25.7182 22.5054 27.1792 23.8275 28.6451 25.1433C28.7202 25.2104 28.8607 25.3222 28.891 25.3014C29.1737 25.1018 29.2806 25.3717 29.4323 25.4914C29.6287 25.6479 29.8076 25.8267 29.9944 25.9944C30.8599 26.7737 31.7269 27.5513 32.5924 28.3305L32.594 28.3321Z" fill="#623BA5"/>
  <path d="M35.2655 25.4978C35.291 25.4563 35.3166 25.4148 35.3421 25.3733C31.8627 23.3629 28.3832 21.3541 24.8687 19.323C24.8112 19.4731 24.7681 19.588 24.7202 19.7158C26.5277 20.7601 28.3082 21.7884 30.0902 22.8152C30.1525 22.8519 30.2595 22.9174 30.285 22.8966C30.5964 22.6491 30.7944 22.9381 31.0084 23.0563C31.7206 23.4507 32.4184 23.8707 33.1242 24.2762C33.8363 24.685 34.5501 25.0906 35.2639 25.4978H35.2655Z" fill="#623BA5"/>
  <path d="M34.0008 27.0004C34.0327 26.9589 34.0647 26.9174 34.0966 26.8759C30.9365 24.5796 27.778 22.285 24.6371 20.0032C24.3433 20.2699 24.4583 20.4104 24.677 20.5685C26.2515 21.7022 27.818 22.8455 29.3892 23.984C29.4707 24.0431 29.616 24.1485 29.6463 24.1246C29.9465 23.8866 30.095 24.182 30.2723 24.3018C30.7257 24.6084 31.1617 24.9421 31.604 25.2631C32.4024 25.8427 33.2024 26.4224 34.0024 27.0004H34.0008Z" fill="#623BA5"/>
  <path d="M20.091 24.6371C19.7142 24.677 19.5816 24.8256 19.6232 25.1912C19.8515 27.2351 20.0559 29.2806 20.2731 31.382C20.8623 31.1537 20.4631 31.8212 20.8527 31.917C20.5956 29.4627 20.3433 27.0515 20.091 24.6387V24.6371Z" fill="#623BA5"/>
  <path d="M18.6858 25.1529V31.7733C18.8631 31.7381 19.0068 31.7094 19.1441 31.6822V24.9325C18.9509 25.0252 18.8088 25.0938 18.6858 25.1529Z" fill="#623BA5"/>
  <path d="M25.1337 18.6906C24.8942 18.9429 24.9629 19.0595 25.2439 19.184C27.0164 19.9633 28.7824 20.7601 30.5517 21.5457C30.6539 21.5904 30.7705 21.6128 30.8822 21.6208C31.0291 21.6319 31.2 21.5681 31.323 21.6208C32.8543 22.2898 34.3776 22.9733 35.9058 23.6519C36.0463 23.7142 36.1932 23.7621 36.3369 23.8164C36.3497 23.7764 36.3641 23.7365 36.3769 23.6966C32.6275 22.0263 28.8782 20.3577 25.1337 18.689V18.6906Z" fill="#623BA5"/>
  <path d="M25.1737 18.4C26.7848 18.9238 28.3976 19.4156 29.9832 19.976C30.6395 20.2076 31.3293 20.1804 31.9713 20.3689C33.6303 20.8543 35.2671 21.4196 36.9134 21.9513C37.0076 21.9816 37.1082 21.9912 37.2056 22.0104C36.3609 21.6255 35.4954 21.3397 34.6268 21.0571C31.6184 20.0798 28.61 19.1042 25.6016 18.1254C25.3764 18.0519 25.1577 17.9609 25.1721 18.3984L25.1737 18.4Z" fill="#623BA5"/>
  <path d="M38.3361 16.1549C38.3345 16.1182 38.3313 16.0798 38.3297 16.0431C38.1924 16.0431 38.0535 16.0431 37.9162 16.0431C36.1677 16.0431 34.4176 16.0431 32.6691 16.0431C30.3856 16.0431 28.1038 16.0431 25.8204 16.0431C25.6192 16.0431 25.3285 15.9697 25.477 16.3976C25.6303 16.3976 25.7916 16.4056 25.9513 16.3976C28.0447 16.2715 30.1333 16.5014 32.2427 16.2252C34.0934 15.984 36.0016 16.1756 37.8842 16.1741C38.0359 16.1741 38.186 16.1613 38.3377 16.1533L38.3361 16.1549Z" fill="#623BA5"/>
  <path d="M25.3573 14.4511C26.622 14.0391 27.8755 13.6447 29.121 13.2232C29.9545 12.9405 30.7609 12.5972 31.5673 12.2347C33.0283 11.5768 34.6156 11.1952 36.1485 10.6954C36.5301 10.5709 36.907 10.4335 37.287 10.3026C37.2758 10.2675 37.2647 10.2323 37.2535 10.1988C37.0938 10.2451 36.9325 10.2866 36.7729 10.3393C33.0443 11.5497 29.3158 12.7617 25.5856 13.9689C25.3589 14.0423 25.1242 14.0838 25.3557 14.4527L25.3573 14.4511Z" fill="#623BA5"/>
  <path d="M25.1816 13.8108C25.7102 13.5792 26.1972 13.3988 26.6539 13.1593C28.0766 12.4104 29.5936 11.893 30.9828 11.0244C32.5605 10.0391 34.3824 9.44351 36.099 8.67705C36.2236 8.62116 36.3449 8.56208 36.4679 8.50299C36.4487 8.46148 36.4279 8.41996 36.4088 8.37844C32.6387 10.0567 28.8671 11.7349 25.0794 13.4212C25.1146 13.5569 25.1433 13.6655 25.1816 13.8108Z" fill="#623BA5"/>
  <path d="M25.0331 13.1481C26.6204 12.2331 28.1852 11.3309 29.7485 10.4287C29.8124 10.392 29.9242 10.3202 29.9162 10.2994C29.7804 9.93373 30.1206 9.92256 30.2898 9.82355C31.8866 8.88783 33.493 7.96647 35.0962 7.03872C35.2096 6.97325 35.3198 6.8998 35.4315 6.83114C35.414 6.7992 35.3948 6.76727 35.3772 6.73533C35.315 6.75928 35.2495 6.77365 35.192 6.80559C31.8307 8.74411 28.4711 10.6874 25.105 12.6196C24.8479 12.7681 24.8559 12.9086 25.0347 13.1465L25.0331 13.1481Z" fill="#623BA5"/>
  <path d="M37.8395 20.1485C37.8427 20.1022 37.8443 20.0575 37.8475 20.0112C33.6926 19.1281 29.5377 18.2451 25.3876 17.3637C25.2024 17.8028 25.5186 17.7772 25.7277 17.822C26.7689 18.0471 27.8052 18.3074 28.8543 18.4735C29.8826 18.6363 30.8631 18.9589 31.9521 18.9557C33.1226 18.9525 34.2946 19.4012 35.4667 19.6503C36.2571 19.818 37.0491 19.9824 37.8395 20.1485Z" fill="#623BA5"/>
  <path d="M34.2036 5.32216C34.1796 5.29022 34.1573 5.25828 34.1333 5.22635C34.0727 5.25669 34.0088 5.28064 33.9545 5.32056C30.9126 7.52894 27.8739 9.74212 24.8256 11.9441C24.5637 12.1325 24.6116 12.2747 24.8016 12.4902C26.1972 11.4778 27.5848 10.4703 28.9709 9.46268C29.0156 9.42914 29.0858 9.34771 29.0778 9.33653C28.8575 9.03313 29.18 8.99641 29.3078 8.9022C30.6667 7.901 32.0335 6.91098 33.3972 5.91617C33.6671 5.71976 33.9337 5.52016 34.202 5.32216H34.2036Z" fill="#623BA5"/>
  <path d="M37.8555 12.1964C37.8459 12.1597 37.8363 12.123 37.8283 12.0862C33.6751 12.9677 29.5202 13.8507 25.3812 14.7289C25.3222 15.1297 25.5393 15.0898 25.7565 15.0435C27.3182 14.7098 28.8751 14.3601 30.4415 14.0519C30.9988 13.9417 31.4778 13.6256 31.9984 13.493C33.7166 13.0587 35.4619 12.7377 37.1976 12.3705C37.4196 12.3242 37.6367 12.2555 37.8571 12.1964H37.8555Z" fill="#623BA5"/>
  <path d="M15.4491 9.55848C15.5066 9.52655 15.5641 9.49301 15.6232 9.46108C14.5709 7.52575 13.4148 5.6479 12.3337 3.70619C12.4136 3.61517 12.4982 3.52096 12.5844 3.42196C12.1613 2.68263 11.7253 1.97525 11.3469 1.24072C11.1345 0.830339 10.9094 0.788822 10.5453 1.06667C12.1788 3.89461 13.814 6.72575 15.4491 9.55689V9.55848Z" fill="#623BA5"/>
  <path d="M38.2116 18.1764C38.2116 18.1317 38.2116 18.087 38.21 18.0439C33.9625 17.5968 29.715 17.1513 25.477 16.7058C25.3333 17.0092 25.4579 17.0842 25.7006 17.1066C26.3058 17.1609 26.9078 17.2583 27.5146 17.2838C29.081 17.3525 30.6108 17.7198 32.214 17.6C33.493 17.5042 34.804 17.8267 36.1022 17.9609C36.8064 18.0343 37.5106 18.1046 38.2132 18.1764H38.2116Z" fill="#623BA5"/>
  <path d="M38.2148 14.1812C38.2132 14.1413 38.2116 14.0998 38.21 14.0599C37.9768 14.079 37.7453 14.0934 37.5122 14.1174C35.0531 14.3745 32.594 14.6331 30.1333 14.8918C28.6755 15.0451 27.216 15.1968 25.7581 15.3485C25.5106 15.3741 25.3094 15.4236 25.5202 15.7956C27.6806 15.3102 29.9401 15.5465 32.099 14.8519C32.9948 14.5645 34.004 14.6267 34.9605 14.5261C36.0447 14.4128 37.1289 14.2946 38.2132 14.1796L38.2148 14.1812Z" fill="#623BA5"/>
  <path d="M32.8319 3.97126C32.7968 3.93293 32.7633 3.89461 32.7281 3.85629C29.9162 6.38723 27.1026 8.91976 24.2731 11.4667C24.3449 11.5992 24.4104 11.7206 24.487 11.8627C25.683 10.788 26.8503 9.73892 28.0144 8.68663C28.0719 8.63553 28.1517 8.50778 28.1389 8.49341C27.8946 8.23154 28.2028 8.15968 28.305 8.06387C29.41 7.05469 30.5261 6.05988 31.6375 5.06028C32.0383 4.6994 32.4343 4.33373 32.8335 3.96966L32.8319 3.97126Z" fill="#623BA5"/>
  <path d="M24.1293 11.2287C25.113 10.1365 26.0551 9.09222 26.9924 8.04631C27.0467 7.98563 27.125 7.8515 27.1058 7.83074C26.8599 7.56407 27.1569 7.45868 27.2671 7.33573C28.5094 5.94331 29.7629 4.56048 31.0132 3.17285C31.1202 3.05469 31.2144 2.92375 31.3134 2.7992C31.2751 2.76886 31.2367 2.74012 31.1984 2.70978C28.7665 5.40998 26.3345 8.11178 23.893 10.8216C23.9681 10.9525 24.0335 11.0643 24.1293 11.2287Z" fill="#623BA5"/>
  <path d="M23.7429 10.5597C24.495 9.52495 25.2343 8.51098 25.9689 7.49381C26.0088 7.43952 26.0471 7.31018 26.0343 7.3022C25.7341 7.11537 25.996 6.97645 26.0838 6.85509C27.2271 5.26946 28.38 3.68862 29.5266 2.10619C29.5872 2.02156 29.6303 1.92415 29.6798 1.83313C29.6271 1.78683 29.5729 1.74052 29.5202 1.69581C29.4739 1.8012 29.4419 1.91776 29.3764 2.00878C27.4667 4.6499 25.5569 7.29102 23.6327 9.92096C23.4491 10.1717 23.4603 10.3313 23.7413 10.5581L23.7429 10.5597Z" fill="#623BA5"/>
  <path d="M16.0351 8.9485C16.091 8.92934 16.1453 8.91018 16.2012 8.89102C16.1581 8.76008 16.1261 8.62435 16.0703 8.4998C15.2974 6.75449 14.5246 5.00759 13.7405 3.26707C13.616 2.99082 13.4691 2.74172 13.822 2.54052C13.485 1.79162 13.1657 1.08263 12.8447 0.370459C12.6371 0.426347 12.4838 0.467864 12.2842 0.520559C13.5441 3.3501 14.7896 6.1493 16.0367 8.9485H16.0351Z" fill="#623BA5"/>
  <path d="M23.2463 9.96567C23.8132 8.98363 24.3465 8.06068 24.8751 7.13613C24.9134 7.06906 24.9357 6.91577 24.9198 6.90938C24.5972 6.77365 24.8495 6.61557 24.915 6.499C25.8699 4.82874 26.8327 3.16168 27.794 1.49461C27.8675 1.36687 27.9313 1.23433 28 1.10339C27.9537 1.07944 27.9058 1.05549 27.8595 1.03154C26.2148 3.87705 24.5717 6.72256 22.9174 9.58563C23.0196 9.70539 23.1154 9.81397 23.2447 9.96567H23.2463Z" fill="#623BA5"/>
  <path d="M26.2515 0.600399L26.119 0.53493C26.0551 0.657884 25.9864 0.777645 25.9289 0.903792C24.7681 3.51138 23.6152 6.12216 22.4415 8.72335C22.2786 9.08264 22.4575 9.18004 22.7162 9.31258C23.0627 8.53014 23.3996 7.77485 23.7301 7.01637C23.7733 6.91577 23.818 6.71457 23.7892 6.6986C23.4922 6.54371 23.6998 6.36327 23.7653 6.21796C24.2762 5.05389 24.8016 3.89461 25.3174 2.73373C25.6319 2.02475 25.9401 1.31257 26.2515 0.601996V0.600399Z" fill="#623BA5"/>
  <path d="M14.0487 0.213972C14.9461 2.97485 15.8291 5.68942 16.7122 8.4024C16.7633 8.38962 16.8144 8.37685 16.8655 8.36407C16.8383 8.22355 16.8256 8.07824 16.7808 7.94252C16.222 6.21158 15.6487 4.48383 15.1074 2.7481C15.0132 2.44631 14.6587 2.09501 15.125 1.78204C15.1409 1.77086 15.1234 1.699 15.1106 1.65749C14.9445 1.14331 14.7768 0.630739 14.6092 0.11018C14.4 0.148503 14.2579 0.174052 14.0519 0.210778L14.0487 0.213972Z" fill="#623BA5"/>
  <path d="M22.7561 6.66826C22.7098 6.66188 22.6635 6.65549 22.6172 6.6491C22.6108 6.47984 22.5549 6.29461 22.6044 6.14132C23.1872 4.30818 23.786 2.47984 24.38 0.6499C24.4248 0.512575 24.4615 0.372056 24.503 0.233134C24.4615 0.220359 24.4216 0.207585 24.38 0.19481C24.3353 0.292216 24.281 0.38483 24.2475 0.487026C23.422 3.01956 22.6028 5.55369 21.7661 8.08303C21.6543 8.42156 21.7182 8.60838 22.0822 8.73453C22.3106 8.03673 22.5325 7.35329 22.7561 6.66826Z" fill="#623BA5"/>
  <path d="M17.4579 7.88982C17.5234 7.87545 17.5888 7.86268 17.6543 7.8483C17.1976 5.67984 16.7393 3.51138 16.2842 1.3509C16.5717 1.14491 16.6387 0.700998 16.3896 0.260279C16.3162 0.129341 16.0495 0.108583 15.7796 0C16.3593 2.72735 16.9086 5.30778 17.4563 7.88982H17.4579Z" fill="#623BA5"/>
  <path d="M22.7593 0.127745C22.713 0.11497 22.6667 0.102196 22.6188 0.0894212C22.5756 0.220359 22.5214 0.348104 22.4926 0.482236C21.988 2.83753 21.493 5.19441 20.982 7.5481C20.9054 7.9026 20.99 8.11018 21.3717 8.19002C21.4675 7.76527 21.576 7.35329 21.6431 6.93493C21.6639 6.80399 21.5713 6.65709 21.5313 6.51657C21.4898 6.52136 21.4499 6.52774 21.4084 6.53254C21.8587 4.3976 22.309 2.26427 22.7593 0.129341V0.127745Z" fill="#623BA5"/>
  <path d="M20.3657 6.74172C20.5972 4.51098 20.8224 2.33932 21.0459 0.169261C20.9932 0.162874 20.9405 0.156487 20.8878 0.1501C20.8559 0.360878 20.8144 0.57006 20.792 0.782435C20.5685 2.88862 20.3593 4.99481 20.1166 7.09781C20.0703 7.49381 20.2092 7.63753 20.5812 7.6982C20.6164 7.38523 20.6483 7.08503 20.685 6.76248C20.5669 6.75449 20.4743 6.7481 20.3657 6.74172Z" fill="#623BA5"/>
  <path d="M18.2866 7.44591C18.3505 7.43792 18.4128 7.42994 18.4766 7.42196C18.4623 7.24152 18.4527 7.06108 18.4335 6.88064C18.2307 4.92455 18.0248 2.97006 17.8251 1.01397C17.8156 0.924551 17.8411 0.766467 17.8874 0.750499C18.1381 0.664271 18.1908 0.472655 18.0567 0.311377C17.9673 0.202794 17.7437 0.204391 17.5202 0.138922C17.782 2.64591 18.0343 5.04591 18.285 7.44591H18.2866Z" fill="#623BA5"/>
  <path d="M19.4523 6.93174C19.414 6.93812 19.3757 6.94611 19.3373 6.9525V0.402395C19.2974 0.400798 19.2575 0.399202 19.2176 0.396008C19.208 0.562076 19.1904 0.726547 19.1904 0.892615C19.1888 2.81677 19.2016 4.73932 19.1808 6.66347C19.1761 7.06267 19.2878 7.26387 19.7669 7.17285C19.6631 7.09301 19.5577 7.01317 19.4539 6.93174H19.4523Z" fill="#623BA5"/>
</svg>
